<?xml version="1.0" encoding="UTF-8" standalone="no"?><!DOCTYPE svg PUBLIC "-//W3C//DTD SVG 1.1//EN" "http://www.w3.org/Graphics/SVG/1.1/DTD/svg11.dtd"><svg width="100%" height="100%" viewBox="0 0 12600 16800" version="1.1" xmlns="http://www.w3.org/2000/svg" xmlns:xlink="http://www.w3.org/1999/xlink" xml:space="preserve" xmlns:serif="http://www.serif.com/" style="fill-rule:evenodd;clip-rule:evenodd;stroke-linecap:round;stroke-linejoin:round;stroke-miterlimit:1.5;"><g id="Calque1"><g><path d="M2595.3,9691.42c-6.9,-253.466 2.311,-480.611 35.409,-654.804c127.891,-673.097 1274.17,-1281 1915.76,-1280.3c641.585,0.706 1770.68,512.134 1900.07,1416.72c18.643,130.343 18.099,309.107 5.118,520.531c170.173,-162.145 360.483,-117.318 219.044,100.405c-155.599,239.518 -272.917,628.255 -203.841,895.898c53.637,207.825 -69.725,321.282 -152.332,259.47c-45.417,352.275 -92.789,715.179 -128.275,1056.61c-29.265,281.563 -111.166,279.414 -572.494,593.749c-322.731,219.9 -577.148,346.916 -1010.77,354.991c-433.626,8.074 -858.192,-199.105 -1100.94,-306.676c-223.209,-98.911 -532.161,-254.121 -599.153,-581.887c-50.584,-247.484 -126.222,-662.246 -190.065,-1117.96c-80.111,45.161 -188.477,-67.321 -138.32,-266.367c67.442,-267.643 -47.102,-656.38 -199.022,-895.898c-139.751,-220.333 52.218,-263.6 219.83,-94.486Z" style="fill:#ffe1ca;"/><path d="M2456.43,9456.92c3.009,-168.852 15.356,-320.543 39.189,-445.978c56.602,-297.897 287.104,-588.905 596.424,-825.238c444.446,-339.576 1046.57,-567.339 1454.57,-566.891c341.298,0.376 812.943,134.486 1215.79,390.91c412.246,262.407 749.805,651.413 820.237,1143.84c12.154,84.981 16.895,189.492 15.485,309.62c21.189,-3.76 40.975,-5.087 58.785,-4.275c63.771,2.908 113.722,28.426 148.234,66.15c52.016,56.856 89.586,176.432 -19.152,343.816c-136.89,210.719 -246.779,551.168 -186.009,786.631c61.492,238.259 -53.307,390.088 -153.577,431.439c-3.826,1.577 -7.669,3.05 -11.544,4.4c-40.205,311.586 -80.65,628.531 -111.86,928.813c-22.706,218.462 -71.507,303.974 -234.5,425.927c-85.11,63.681 -210.428,139.887 -397.333,267.238c-346.391,236.021 -620.223,370.17 -1085.64,378.837c-456.123,8.493 -903.863,-205.29 -1159.21,-318.442c-256.669,-113.738 -601.128,-303.164 -678.162,-680.062c-46.736,-228.661 -114.714,-599.045 -175.231,-1012.98c-42.387,-17.838 -81.763,-50.574 -113.355,-99.092c-45.855,-70.421 -75.709,-185.391 -38.416,-333.388c59.476,-236.029 -47.828,-577.426 -181.803,-788.653c-107.308,-169.183 -68.049,-288.897 -15.334,-344.973c35.241,-37.489 85.924,-62.358 150.224,-63.927c18.785,-0.458 39.742,1.518 62.189,6.275Zm138.864,234.492c-6.9,-253.466 2.311,-480.611 35.409,-654.804c127.891,-673.097 1274.17,-1281 1915.76,-1280.3c641.585,0.706 1770.68,512.134 1900.07,1416.72c18.643,130.343 18.099,309.107 5.118,520.531c170.173,-162.145 360.483,-117.318 219.044,100.405c-155.599,239.518 -272.917,628.255 -203.841,895.898c53.637,207.825 -69.725,321.282 -152.332,259.47c-45.417,352.275 -92.789,715.179 -128.275,1056.61c-29.265,281.563 -111.166,279.414 -572.494,593.749c-322.731,219.9 -577.148,346.916 -1010.77,354.991c-433.626,8.074 -858.192,-199.105 -1100.94,-306.676c-223.209,-98.911 -532.161,-254.121 -599.153,-581.887c-50.584,-247.484 -126.222,-662.246 -190.065,-1117.96c-80.111,45.161 -188.477,-67.321 -138.32,-266.367c67.442,-267.643 -47.102,-656.38 -199.022,-895.898c-139.751,-220.333 52.218,-263.6 219.83,-94.486Z" style="fill:#fff;"/><ellipse cx="3899.56" cy="10221.2" rx="97.569" ry="115.213"/><path d="M3552.97,12119.8c271.271,319.065 1211.44,1045.39 2060.53,-94.719c78.31,-105.15 -197.68,254.795 -982.317,247.861c-784.636,-6.933 -1151.11,-238.878 -1078.21,-153.142Z" style="fill:#f2b9b0;"/><ellipse cx="5172.59" cy="10225.6" rx="95.03" ry="116.634" style="stroke:#000;stroke-width:37.5px;"/><path d="M5115.39,11001.3c5.882,25.122 -196.203,728.625 -641.906,705.274c-232.415,-12.177 -458.399,-335.442 -489.182,-593.555c-17.361,-145.573 11.036,340.723 508.627,325.358c497.591,-15.364 596.971,-545.934 622.461,-437.077Z" style="fill:#f2b9b0;"/><path d="M2800.08,9109.65c-20.253,193.714 353.748,-849.36 946.777,-859.929c327.215,-5.831 462.207,300.196 795.768,320.053c333.561,19.856 517.155,-347.201 719.499,-335.092c202.344,12.11 762.304,141.472 994.01,885.873c231.706,744.401 239.486,-975.521 -1217.58,-1164.58c-1457.06,-189.063 -2153.97,345.341 -2238.48,1153.68Z" style="fill:#f2b9b0;"/><path d="M3627.39,12704.1c-45.748,-20.299 -87.743,-39.366 -125.37,-56.039c-223.209,-98.911 -532.161,-254.121 -599.153,-581.887c-126.935,-621.038 -411.644,-2295.45 -272.168,-3029.51c127.891,-673.097 1274.17,-1281 1915.76,-1280.3c641.585,0.706 1770.68,512.134 1900.07,1416.72c73.368,512.96 -150.422,1775.86 -260.286,2832.91c-29.265,281.563 -111.166,279.414 -572.494,593.749c-61.19,41.693 -119.924,80.047 -177.869,114.871c9.417,-564.666 -72.806,-831.631 -87.9,-935.938c-16.71,-115.473 45.031,-108.486 93.685,-117.296c48.655,-8.811 128.689,-14.432 317.036,-59.722c188.346,-45.291 198.806,-261.849 337.999,-773.46c139.193,-511.61 268.446,-1313.45 92.708,-1884.44c-175.738,-570.985 -596.124,-801.795 -916.58,-874.045c-314.192,-70.838 -341.894,337.208 -699.609,334.071c-359.743,-3.154 -360.807,-267.274 -764.301,-311.371c-109.629,-11.981 -945.334,299.436 -1053.21,1431.27c-107.878,1131.84 247.396,1901.15 395.356,1992.38c147.96,91.233 186.697,96.984 361.003,148.872c174.305,51.888 193.315,31.857 152.973,241.797c-31.561,164.235 -40.304,517.354 -37.638,797.361Z" style="fill:#3e2c1f;"/><path d="M2863.79,10933.1c93.086,331.766 214.941,538.372 287.264,582.966c147.96,91.233 186.697,96.984 361.003,148.872c174.305,51.888 193.315,31.857 152.973,241.797c-27.316,142.145 -37.539,425.782 -38.064,681.013c-74.506,-653.284 -7.794,-717.861 -130.22,-764.081c-133.384,-50.357 -478.145,-98.785 -632.956,-890.567Z" style="fill:#513e31;"/><path d="M3081.12,9181.72c44.398,-159.787 289.406,-340.461 1188.48,314.177c-266.895,-75.479 -687.43,-290.536 -1188.48,-314.177Z" style="fill:#ffecdd;"/><path d="M4808.45,9568.69c439.648,-689.901 653.891,-1021.73 908.48,-853.979c254.588,167.748 -303.186,266.454 -303.186,266.454c0,0 -676.517,699.289 -605.294,587.525Z" style="fill:#ffecdd;"/><path d="M4267.51,9498.01c-193.463,-109.072 -693.279,-443.751 -1036.25,-405.461c-225.428,25.167 -173.754,264.335 -173.041,343.612c0.713,79.276 21.41,-181.72 265.866,-169.632c244.456,12.088 713.639,183.474 917.419,305.226c22.375,13.369 64.921,-51.803 26.002,-73.745Z" style="fill:#3e2c1f;"/><path d="M4798.11,9580.38c-0,-0 501.598,-633.591 582.063,-708.531c80.466,-74.94 316.618,-264.267 462.509,-96.799c145.89,167.468 133.453,239.543 133.453,239.543c0,-0 -144.71,-171.907 -409.819,17.644c-265.11,189.551 -706.041,570.47 -706.041,570.47l-62.165,-22.327Z" style="fill:#3e2c1f;"/></g><path d="M3775.33,12162.9c180.834,47.904 466.991,106.607 855.856,110.043c283.411,2.505 500.461,-42.856 658.441,-96.884l-3.949,87.518c0,0 -264.518,173.503 -717.643,194.336c-453.125,20.833 -792.86,-212.305 -792.86,-212.305l0.155,-82.708Z" style="fill:#fff;"/><path d="M3379.99,8153.7c386.169,-241.656 841.183,-397.74 1166.47,-397.383c342.35,0.377 823.509,146.171 1217.59,419.568c-1027.33,-571.281 -2241.97,-82.862 -2384.05,-22.185Z" style="fill:#57463c;"/><ellipse cx="4514.78" cy="11043.4" rx="104.134" ry="164.941" style="fill:#fff;fill-opacity:0.37;"/><path d="M4163.22,10413.7c-0,0 -257.683,233.29 -639.953,203.429c-382.27,-29.861 311.784,686.632 639.953,-203.429Z" style="fill:#f2b9b0;fill-opacity:0.62;"/><path d="M4861.66,10427.8c0,-0 251.152,233.29 623.735,203.428c372.583,-29.861 -303.883,686.632 -623.735,-203.428Z" style="fill:#f2b9b0;fill-opacity:0.62;"/></g><g id="Lunettes"><path d="M2826.74,10721.1c181.147,556.017 936.527,784.62 1324.09,58.268c193.49,-362.63 -242.057,346.224 -674.544,288.249c-432.487,-57.976 -766.736,-706.226 -649.544,-346.517Z" style="fill:#f2b9b0;"/><path d="M4828.04,10743.8c181.147,556.017 936.527,784.62 1324.09,58.268c193.49,-362.63 -242.057,346.224 -674.544,288.249c-432.487,-57.975 -766.735,-706.226 -649.544,-346.517Z" style="fill:#f2b9b0;"/><circle cx="3516.77" cy="10270.8" r="787.012" style="fill:#699cff;fill-opacity:0.38;stroke:#262423;stroke-width:129.17px;"/><circle cx="5513.22" cy="10270.8" r="787.012" style="fill:#699cff;fill-opacity:0.38;stroke:#262423;stroke-width:129.17px;"/><path d="M4306.09,10207.8c57.227,-89.16 96.973,-172.136 222.103,-174.056c125.13,-1.921 168.758,113.444 202.303,182.023" style="fill:none;stroke:#262423;stroke-width:37.5px;"/><path d="M4793.69,10119.3c84.173,-337.302 375.502,-586.368 721.54,-586.368c310.298,0 576.604,200.274 689,484.866c-179.613,161.926 -397.653,285.117 -618.59,336.008c-284.431,65.516 -573.664,11.205 -791.95,-234.506Z" style="fill:#fff;fill-opacity:0.21;"/><path d="M4236.72,10119.3c-82.938,-337.302 -369.994,-586.368 -710.956,-586.368c-305.747,0 -568.147,200.274 -678.894,484.866c176.978,161.926 391.82,285.117 609.517,336.008c280.258,65.516 565.248,11.205 780.333,-234.506Z" style="fill:#fff;fill-opacity:0.21;"/></g><g id="Calque2"></g></svg>