<?xml version="1.0" encoding="UTF-8"?>
<svg width="713px" height="663px" viewBox="0 0 713 663" version="1.1" xmlns="http://www.w3.org/2000/svg" xmlns:xlink="http://www.w3.org/1999/xlink">
    <title>planet</title>
    <g id="planet" stroke="none" stroke-width="1" fill="none" fill-rule="evenodd">
        <path d="M405.828125,236.289063 C392.742188,207.369792 362.704427,190.776042 315.714844,186.507813 C245.230469,180.105469 113.839844,202.769531 113.839844,236.289063 C113.839844,269.808594 188.832031,245.554688 181.976563,288.882813 C175.121094,332.210938 77.2851563,280.800781 62.2539063,332.253906 C47.2226563,383.707031 150.03125,345.972656 144.957031,392.726563 C139.882813,439.480469 20.6679688,445.109375 20.6679688,487.253906 C20.6679688,529.398438 207.76567,463.699219 207.76567,505.121094 C207.76567,546.542969 150.152344,539.027344 150.152344,563.191406 C150.152344,587.355469 238.773438,533.507813 254.644531,563.191406 C270.515625,592.875 225.957031,604.816406 254.644531,633.859375 C283.332031,662.902344 454.359375,609.378906 534.683594,535.054688 C615.007813,460.730469 615.007813,451.027265 606.570313,437.808594 C598.132813,424.589923 524.527344,451.027265 524.527344,413.660077 C524.527344,376.29289 567.839844,380.882813 567.839844,359.632813 C567.839844,338.382813 525.652344,364.953125 480.113281,316.683594 C449.753906,284.503906 424.992188,257.705729 405.828125,236.289063 Z" id="Path" fill="#9DFFBB"></path>
        <g id="Group" transform="translate(155.000000, 166.000000)">
            <circle id="Oval" fill="#4646DF" cx="194" cy="194" r="194"></circle>
            <path d="M335.98182,61.7976552 C368.255578,96.4434886 388,142.915966 388,194 C388,282.182168 329.165022,356.62269 248.608259,380.208374 C238.130636,374.012605 230.308435,362.864685 225.136719,346.765625 C190.296875,238.3125 295.484375,244.080423 329.865234,177.839844 C351.181367,136.770684 355.009552,98.7142833 336.632106,63.0436505 Z" id="Combined-Shape" fill="#5151EE"></path>
            <path d="M383.358153,151.624453 C386.397087,165.263992 388,179.444806 388,194 C388,208.349871 386.441991,222.33585 383.485902,235.798006 C378.697751,249.816542 371.705656,265.742388 362.019531,284.886719 C316.035156,375.773438 264.140625,319.496094 325.587135,275.5 C367.370762,245.582656 384.746677,199.943914 383.419529,153.585344 Z" id="Combined-Shape" fill="#5D5DF7"></path>
            <path d="M194,0 C207.190885,0 220.074284,1.31650318 232.525973,3.8252849 C281.38042,16.0027819 319.126941,42.7135188 325.222656,89.2230912 C336.242188,173.300781 93.5625,117.046875 116.050781,308.757812 C121.971205,359.228991 163.337781,383.80371 240.150508,382.48197 L240.168632,382.472718 C225.371678,386.084923 209.909484,388 194,388 C86.8567585,388 0,301.143241 0,194 C0,86.8567585 86.8567585,0 194,0 Z" id="Combined-Shape" fill="#3F40CF"></path>
            <path d="M199.355469,57.9257813 C166.378906,81.6757813 -82.765625,207.664063 118.824219,372.699219 L119.298233,373.095692 C49.2369622,343.838806 0,274.669357 0,194 C0,121.242876 40.0520829,57.8404165 99.3107358,24.6381356 C103.423066,23.3378372 107.858888,21.598736 112.617188,19.4244678 C175.925781,-9.50390625 232.332031,34.1757813 199.355469,57.9257813 Z" id="Combined-Shape" fill="#3637BE"></path>
            <path d="M151.382812,26.9960937 C166.591793,38.9492187 174.867188,51.5 125.371094,81.46875 C75.875,111.4375 50.859375,143.796875 40.2304687,168.898438 C29.6015625,194 -7.59375,190.054688 11.0039062,131.644531 C12.5016707,126.940462 13.8987516,122.584588 15.2250224,118.536015 C28.2445588,87.7291123 48.9953019,60.9858711 75.045271,40.737912 C75.8234473,40.2295652 76.6139808,39.7105511 77.4179687,39.1835937 C122.160156,9.85824974 136.173832,15.0429687 151.382812,26.9960937 Z" id="Combined-Shape" fill="#2B2CA1"></path>
            <ellipse id="Oval" fill="#22238A" transform="translate(103.230964, 53.196245) rotate(-31.000000) translate(-103.230964, -53.196245) " cx="103.230964" cy="53.1962452" rx="35" ry="21"></ellipse>
            <ellipse id="Oval" fill="#1A1B73" transform="translate(104.973445, 43.767662) rotate(-31.000000) translate(-104.973445, -43.767662) " cx="104.973445" cy="43.7676616" rx="17" ry="9.5"></ellipse>
            <path d="M81,134 C81,232.85897 161.14103,313 260,313 C301.636829,313 339.953329,298.783979 370.360517,274.940919 C339.685591,341.667926 272.253513,388 194,388 C86.8567585,388 0,301.143241 0,194 C0,109.203937 54.4033238,37.1144509 130.210037,10.7314766 C99.7127389,42.8301411 81,86.2297734 81,134 Z" id="Combined-Shape" fill="#030303" opacity="0.12831577"></path>
        </g>
        <path d="M554.679224,126 C487.425012,112.570313 460,67.3460223 511,61.9658937 C562,56.585765 557.950943,39.6414294 545.282585,27.0544845 C532.614227,14.4675396 572.919103,14.4675396 598.804556,14.4675396 C624.690009,14.4675396 639.984213,24.2252861 617.329224,35.2987811 C594.674235,46.3722762 639.770998,54.4022402 664.504703,56.585765 C689.238409,58.7692899 721.150607,84.1178208 689.238409,103.485765 C657.326211,122.853709 673.054525,160.476443 664.504703,164.868925 C655.954881,169.261407 621.933435,139.429688 554.679224,126 Z" id="Path-7" fill="#9DFFBB"></path>
        <g id="Group" transform="translate(591.000000, 126.000000) rotate(-165.000000) translate(-591.000000, -126.000000) translate(511.000000, 45.000000)">
            <circle id="Oval" fill="#4646DF" cx="77" cy="84" r="67.9"></circle>
            <path d="M126.693815,37.7293704 C137.989525,49.8553918 144.9,66.1206819 144.9,84 C144.9,114.863813 124.307685,140.918034 96.1127409,149.172975 C92.4456596,147.004322 89.7079313,143.102575 87.8978516,137.467969 C80.3376055,113.933641 91.6166382,105.766612 104.148275,97.4325831 L105.364334,96.6250214 C112.677066,91.7702657 120.220844,86.6902583 124.552832,78.3439453 C132.013479,63.9697395 133.353343,50.6499992 126.921237,38.1652777 Z" id="Combined-Shape" fill="#5151EE"></path>
            <path d="M143.275215,69.1679366 C144.338932,73.9419663 144.9,78.9054609 144.9,84 C144.9,89.0232408 144.354526,93.9190793 143.31958,98.6315137 C141.64371,103.536936 139.196631,109.110525 135.806836,115.810352 C119.712305,147.620703 101.549219,127.923633 123.055497,112.525 C137.679767,102.05393 143.761337,86.0803698 143.296835,69.8548704 Z" id="Combined-Shape" fill="#5D5DF7"></path>
            <path d="M77,16.1 C81.6192383,16.1 86.1307433,16.561261 90.4909677,17.4402357 C107.586665,21.7034635 120.794713,31.0518991 122.92793,47.3280819 C126.784766,76.7552734 41.846875,57.0664062 49.7177734,124.165234 C51.7899168,141.830104 66.268153,150.431257 93.1524818,149.968693 C87.9798165,151.229757 82.5681801,151.9 77,151.9 C39.4998655,151.9 9.1,121.500135 9.1,84 C9.1,46.4998655 39.4998655,16.1 77,16.1 Z" id="Combined-Shape" fill="#3F40CF"></path>
            <path d="M78.8744141,36.3740234 C67.3326172,44.6865234 -19.8679687,88.7824219 50.6884766,146.544727 L50.8526577,146.682772 C26.3321292,136.442448 9.1,112.233614 9.1,84 C9.1,58.5352318 23.117981,36.3445384 43.858207,24.7236559 C45.2978506,24.2683303 46.8504914,23.6596122 48.5160156,22.8985637 C70.6740234,12.7736328 90.4162109,28.0615234 78.8744141,36.3740234 Z" id="Combined-Shape" fill="#3637BE"></path>
            <path d="M62.0839844,25.5486328 C67.4071274,29.7322266 70.3035156,34.125 52.9798828,44.6140625 C35.65625,55.103125 26.9007812,66.4289063 23.1806641,75.2144531 C19.4605469,84 6.4421875,82.6191406 12.9513672,62.1755859 C13.4759598,60.527984 13.9652627,59.0024243 14.4297541,57.5845643 C18.9868518,46.8039066 26.2483451,37.445572 35.3639713,30.3597255 C35.6369931,30.1811445 35.9142762,29.9990973 36.1962891,29.8142578 C51.8560547,19.5503874 56.7608414,21.3650391 62.0839844,25.5486328 Z" id="Combined-Shape" fill="#2B2CA1"></path>
            <ellipse id="Oval" fill="#22238A" transform="translate(45.230838, 34.718686) rotate(-31.000000) translate(-45.230838, -34.718686) " cx="45.2308376" cy="34.7186858" rx="12.25" ry="7.35"></ellipse>
            <ellipse id="Oval" fill="#1A1B73" transform="translate(45.840706, 31.418682) rotate(-31.000000) translate(-45.840706, -31.418682) " cx="45.8407059" cy="31.4186816" rx="5.95" ry="3.325"></ellipse>
            <path d="M43.3057694,57.8070891 C43.3057694,92.4077287 71.3551298,120.457089 105.955769,120.457089 C120.52888,120.457089 133.939839,115.481332 144.582432,107.136033 C133.846394,130.490405 110.244886,146.707089 82.8557694,146.707089 C45.3556349,146.707089 14.9557694,116.307224 14.9557694,78.8070891 C14.9557694,49.1284113 33.9970043,23.8970521 60.5294319,14.6630539 C49.855421,25.897191 43.3057694,41.0872635 43.3057694,57.8070891 Z" id="Combined-Shape" fill="#030303" opacity="0.12831577" transform="translate(79.768598, 80.685245) rotate(-195.000000) translate(-79.768598, -80.685245) "></path>
        </g>
    </g>
</svg>