<svg xmlns="http://www.w3.org/2000/svg" viewBox="0 0 354.73 445.55">
  <defs>
    <style>
      .cls-1{fill:#ffaf03;}
      .cls-2{fill:#6a3445;}
      .cls-3{fill:#f6d3c8;}
      .cls-4{fill:#2e3257;}
      .cls-5{fill:#232644;}
      .cls-6{fill:#de370b;}
      .cls-7{fill:#ff3d0a;}
      .cls-8{fill:#191c3a;}
      .cls-11,.cls-9{fill:none;stroke-linecap:round;stroke-miterlimit:10;stroke-width:3px;}
      .cls-9{stroke:#232644;}
      .cls-10{fill:#444a72;}
      .cls-11{stroke:#2e3257;}
      .cls-12{fill:#48b290;}
      .cls-13{fill:#fff;}
      .cls-14{fill:#ffb6ad;}
      .cls-15{fill:#ff9c90;}
      .cls-16{fill:#99d6c0;}
      .cls-17{fill:#7ac7ae;}
      .cls-18{fill:#ff8178;}
      .cls-19{fill:#211e21;}
    </style>
  </defs>
  <g id="Layer_2" data-name="Layer 2">
    <g id="Main">
      <path class="cls-1" d="M17.94,183.87c-2.41,5.61-3.67,13,.83,17.1,4.09,3.75,10.71,2.54,15.58-.13s9.17-6.59,14.54-8,12.46,1.36,12.87,6.89c.32,4.42-3.59,7.85-7,10.72C36.37,226.08,23.29,247,11.51,268,6.08,277.71.75,287.9.07,299a37.13,37.13,0,0,0,8.17,25.73A33.63,33.63,0,0,0,32.19,336.9c15.73.75,29.5-10,40.66-21.11,19.47-19.36,36-41.47,50.87-64.54,8.16-12.67,15.95-26,19.09-40.69a25.25,25.25,0,0,0,.52-10.08,28.19,28.19,0,0,0-2.69-7A175.74,175.74,0,0,0,91.2,133c-6.48-5-13.86-11.84-21.41-6.11-6.94,5.27-13.33,11.82-19.85,17.62C37.26,155.79,24.73,168,17.94,183.87Z"/>
      <path class="cls-1" d="M258.93,93.2c3.8-2.72,7.89-5.28,12.49-6.08s9.85.54,12.56,4.34c3.84,5.37,1.28,12.91-2.27,18.47s-8.16,11-8.3,17.64a4.78,4.78,0,0,0,.81,3.15c.93,1.16,2.6,1.41,4.09,1.37,6.25-.15,11.89-3.68,16.78-7.57,11.66-9.27,21.49-21.45,35.3-27,14-5.63,25.82,9.57,24.19,22.55-1.42,11.41-10.74,21.69-17,30.94q-11.37,16.88-23.2,33.43-23.34,32.64-48.41,64c-4.67,5.84-9.42,11.68-15,16.7-4.51,4.08-9.72,7.68-15.68,8.83a10.65,10.65,0,0,1-6.88-.6c-3.12-1.62-4.55-5.27-5.34-8.69-1.36-5.91-1.59-12-1.81-18.08-.83-22.63-1.66-45.38,1.05-67.86.71-5.92,1.67-11.81,2.63-17.7l2.68-16.51c1.53-9.42,2.66-20.83,7.85-29.09C241,106.74,250.7,99.12,258.93,93.2Z"/>
      <path class="cls-2" d="M266.47,162.35c-1.6-3.45-4.45-6.47-4.76-10.25-.4-4.83,3.43-8.86,5.1-13.41a15.84,15.84,0,0,0-1.52-13.82c-2.84-4.41-8-7.57-8.94-12.72-.91-4.84,2.23-9.41,3.43-14.19,1.45-5.73-.31-12.45-5.14-15.87-3.33-2.36-7.6-2.92-11.23-4.8a17.43,17.43,0,0,1-9.2-13.6c-.5-5.27,1.44-10.68.16-15.81-1.42-5.72-6.55-9.79-11.89-12.27-3.23-1.5-6.49-2.92-9.83-4.15-3.05-1.14-6.58-1.61-9.45-3.13-3.06-1.62-4.76-4.73-6.66-7.47-2.11-3-4.34-6-6.5-9C186.82,7.3,182.86,3,177.66,1.07a17.43,17.43,0,0,0-9.27-.76,17.41,17.41,0,0,0-9.27.76C153.91,3,150,7.3,146.73,11.82c-2.16,3-4.38,6-6.5,9-1.9,2.74-3.59,5.85-6.65,7.47-2.87,1.52-6.4,2-9.46,3.13-3.33,1.23-6.6,2.65-9.82,4.15-5.35,2.48-10.47,6.55-11.9,12.27-1.28,5.13.66,10.54.16,15.81a17.42,17.42,0,0,1-9.19,13.6c-3.63,1.88-7.91,2.44-11.24,4.8C77.31,85.51,75.55,92.23,77,98c1.21,4.78,4.35,9.35,3.43,14.19-1,5.15-6.1,8.31-8.93,12.72A15.84,15.84,0,0,0,70,138.69c1.67,4.55,5.5,8.58,5.11,13.41-.31,3.78-3.17,6.8-4.76,10.25a16.13,16.13,0,0,0,16.45,22.81l81.49.9h.28l81.48-.9a16.13,16.13,0,0,0,16.46-22.81Z"/>
      <path class="cls-3" d="M96.69,414a88.61,88.61,0,0,0-30.52,9.53c-2.92,1.54-6.11,3.81-6.17,7.11-.07,4.28,4.92,6.54,9,7.7,16.06,4.52,32.74,9.09,49.21,6.41,11.09-1.81,21.36-6.81,31.95-10.56,21.33-7.56,48.87,3.77,67.24-12.24,1-.86,2-2.22,1.36-3.36a2.76,2.76,0,0,0-1.17-1c-6.66-3.66-15.2-4-22.61-3.68-8.42.37-16.85.58-25.28.87l-50.56,1.74-9.1.32"/>
      <path class="cls-4" d="M244.51,272.62h0a23.41,23.41,0,0,0-9.27,36,22,22,0,0,0,1.93,2.17C245.6,302.86,252.37,290.44,244.51,272.62Z"/>
      <path class="cls-5" d="M235,312.73a135,135,0,0,1-2.49,19l-68.4,27.51h0l-4.34-3.45c26.49-15,55.34-31.28,62.53-34.88A64.9,64.9,0,0,0,235,312.73Z"/>
      <path class="cls-4" d="M152.45,299.2a115.27,115.27,0,0,0-25.53,26.25q-1.14,1.65-2.25,3.21c-7-6.24-13.86-12.8-20.21-18.54L120,285.6C129.82,288.12,141.92,291,152.45,299.2Z"/>
      <path class="cls-4" d="M109.44,282.41,95.89,302.73c-.94-.75-1.85-1.47-2.75-2.15L106.53,281A24.58,24.58,0,0,0,109.44,282.41Z"/>
      <path class="cls-6" d="M106.53,281h0L93.14,300.58c-1.27-.95-2.51-1.84-3.71-2.63l12.41-21.63A11,11,0,0,0,106.53,281Z"/>
      <path class="cls-7" d="M101.84,276.32,89.43,298c-5.69-3.73-10.6-5.46-14.45-3.83-13.77,5.83-37.43,16.52-39.69,9.72,0,0,.43-4.54,6.26-8.26S95.28,263.8,95.28,263.8C97.59,266.86,99.46,271.38,101.84,276.32Z"/>
      <path class="cls-8" d="M57.89,295c-1.11,3.45-2.06,7.08-.74,10.6.59,1.55,3.1.88,2.5-.69-1.17-3.1-.23-6.2.73-9.22C60.89,294.11,58.39,293.42,57.89,295Z"/>
      <path class="cls-8" d="M66.53,302.73c-1.93-2.1-.91-6.53-.45-9,.3-1.63-2.2-2.33-2.5-.69-.68,3.62-1.64,8.52,1.12,11.52C65.83,305.8,67.66,304,66.53,302.73Z"/>
      <path class="cls-8" d="M79.21,296.19A13.44,13.44,0,0,0,75.77,294l1.93-1a8.06,8.06,0,0,0,2.64-1.86,3,3,0,0,0-1-4.75c-2-1-4.43.07-5.94,1.49a7.24,7.24,0,0,0-1.71,2.5,1.34,1.34,0,0,0-2.55.45,42.77,42.77,0,0,0,.54,11.52c.29,1.64,2.79.94,2.5-.69-.14-.79-.26-1.58-.35-2.37a10,10,0,0,0,3,3c1.78,1.14,5,2.21,6.53.18C83,300.31,80.84,297.63,79.21,296.19Zm-1.51-7.53c2,.44-.6,1.72-1.31,2.09l-2.6,1.34a4.63,4.63,0,0,1,.79-1.72C75.22,289.51,76.53,288.41,77.7,288.66Zm1.48,12.08c-.7,1.11-3.4-.83-4.05-1.44A7.4,7.4,0,0,1,73,295.72a11.4,11.4,0,0,1,2.84,1.19C76.62,297.38,79.85,299.66,79.18,300.74Z"/>
      <path class="cls-5" d="M83.57,260.85c5.58-2.3,9-.72,11.71,2.95,0,0-47.9,28.05-53.73,31.78s-6.26,8.26-6.26,8.26c-2.27-6.81-1-7.78,39.69-33C75,270.79,73.32,265.07,83.57,260.85Z"/>
      <path class="cls-4" d="M164.09,359.2l68.4-27.51a72.8,72.8,0,0,1-8,21.88c-1.11,1.89-2.21,3.63-3.32,5.23A23.4,23.4,0,0,0,183.57,372C177.1,369,170.61,364.3,164.09,359.2Z"/>
      <path class="cls-9" d="M112.51,298.15c8.14,2.66,16.32,5.34,23.89,9.33,7.23,3.81,13.79,8.74,20.31,13.65,8.33,6.26,16.66,12.53,24.54,19.35a45.21,45.21,0,0,0,6.52,5A21,21,0,0,0,205.72,347a13.14,13.14,0,0,0,5.1-3.33,16.12,16.12,0,0,0,2.94-5.59,50.63,50.63,0,0,0,2.74-15.37c0-.32-.05-.72-.35-.79s-.31.6-.06.42"/>
      <path class="cls-8" d="M118.51,280,116,278.74a3.88,3.88,0,0,0-5,1.32l-1.57,2.35L95.89,302.73l-4.59,6.88a3.89,3.89,0,0,0,1.19,5.44L95.56,317a3.89,3.89,0,0,0,5.37-1.27l3.53-5.58L120,285.6l.06-.09A3.9,3.9,0,0,0,118.51,280Z"/>
      <path class="cls-4" d="M223.16,210.94c2.31,9.43,5.72,24.73,8.34,42.25a179.76,179.76,0,0,0-24.29-22.36L184.85,211Z"/>
      <path class="cls-5" d="M223.16,210.94l-38.31.08-11.36-10.08h47.09S221.63,204.63,223.16,210.94Z"/>
      <path class="cls-5" d="M206.43,353.57a23.33,23.33,0,0,1,14.75,5.23c-12.48,18.06-25,19-37.61,13.21A23.39,23.39,0,0,1,206.43,353.57Z"/>
      <polygon class="cls-4" points="173.49 200.94 184.85 211.02 175.1 211.03 173.49 200.94"/>
      <path class="cls-4" d="M173.49,200.94,175.1,211l-64.14.13a47.78,47.78,0,0,1,6.36-9Z"/>
      <path class="cls-10" d="M244.47,272.63h0c-2.6-5.88-6.78-12.34-13-19.43a179.76,179.76,0,0,0-24.29-22.36L184.85,211H175.1l-64.14.13a51.63,51.63,0,0,0-5.29,13.39l20.73-6.85,4.47,26.2-13.55,23.45c26,24.21,45.4,22.09,52.61,21.06a102,102,0,0,0-17.48,10.79,115.27,115.27,0,0,0-25.53,26.25q-1.14,1.65-2.25,3.21a221.27,221.27,0,0,1-17,21.46l17.19,25.39c9-5.1,21.67-12.27,34.88-19.76,26.49-15,55.34-31.28,62.53-34.88A64.9,64.9,0,0,0,235,312.73c.73-.6,1.45-1.23,2.15-1.9a22,22,0,0,1-1.93-2.17,23.41,23.41,0,0,1,9.27-36Z"/>
      <path class="cls-4" d="M126.4,217.7l4.47,26.2-13.55,23.45c-13.36-16.09-14.41-31.18-11.65-42.8Z"/>
      <path class="cls-11" d="M113,357.72c14.06-18.34,29.92-37.55,50.54-48,12.51-6.34,26.4-9.4,39.35-14.76,4.72-2,9.68-4.59,11.66-9.3,2.65-6.29-1.22-13.53-6.3-18.09-6.56-5.9-15-9.17-22.56-13.72s-14.24-10.42-18.56-18-6-16.87-3.28-25.15l-.46,2.09"/>
      <path class="cls-11" d="M169.93,288.41a57.16,57.16,0,0,1,28.39-6.6"/>
      <path class="cls-10" d="M115,381.07l-.06,0L98.18,359.2c.56-.45,1.16-.94,1.77-1.48Z"/>
      <path class="cls-6" d="M98.18,359.2l16.72,21.9a11.9,11.9,0,0,0-3,2.32L92.05,362.77A18.86,18.86,0,0,0,98.18,359.2Z"/>
      <path class="cls-7" d="M111.94,383.42c-10.52,11.42,5,41.4,0,49.05h0c-.27,0-8.69-.7-14-16.64-5.41-16.2-17-49-17-49,3.9-2.3,8.74-3.46,11.14-4.1Z"/>
      <path class="cls-8" d="M114,413.68c-2.91-2.93-6.93-2.82-10.75-2.37-1.64.19-1.66,2.78,0,2.59,3.06-.36,6.54-.78,8.92,1.61A1.29,1.29,0,0,0,114,413.68Z"/>
      <path class="cls-8" d="M113.72,407c-3.07-3.78-8-2.94-12.19-1.81a1.3,1.3,0,0,0,.69,2.5c3.27-.9,7.21-1.89,9.67,1.14C112.94,410.15,114.76,408.3,113.72,407Z"/>
      <path class="cls-8" d="M117.67,394.07c-.56-2.43-3.34-3-5.42-2.31a10.32,10.32,0,0,0-4.56,3.37,10.23,10.23,0,0,0-2.3-4.18,3.19,3.19,0,0,0-5,.63c-1,1.94-.39,4.48.84,6.16a8.07,8.07,0,0,0,.59.7,12.41,12.41,0,0,0-2.41.86c-1.5.71-.19,2.95,1.31,2.23a9,9,0,0,1,9.49,1.12c1.28,1,3.13-.79,1.83-1.84-.21-.16-.41-.32-.63-.47a15.93,15.93,0,0,0,2.27-.85C115.7,398.55,118.28,396.71,117.67,394.07Zm-15.23-.41c.35-2.58,1.84.14,2.18,1,.46,1.11.87,2.24,1.3,3.37C104,397.32,102.15,395.82,102.44,393.66Zm11,3c-.14.09-3.76,1.73-3.85,1.39a1.23,1.23,0,0,0-.42-.67c1.12-1.62,2.84-3.34,4.67-3.31C116.13,394.09,114.51,396.05,113.49,396.66Z"/>
      <path class="cls-5" d="M111.93,432.47a3.76,3.76,0,0,1-2.46,1.67c-12,2.61-26-46.81-26-46.81s-3.92,2.61-7.86-8.51c-2-5.76,1.1-9.5,5.3-11.95,0,0,11.61,32.76,17,49C103.24,431.77,111.66,432.45,111.93,432.47Z"/>
      <path class="cls-8" d="M126.22,377.52l-1.36-2-17.19-25.39-1.49-2.2a3.89,3.89,0,0,0-5.65-.78l-2.15,1.77a3.88,3.88,0,0,0-.8,5.13l2.37,3.68,15,23.35,1.83,2.85a3.89,3.89,0,0,0,5.46,1.08l3-2A3.9,3.9,0,0,0,126.22,377.52Z"/>
      <path class="cls-12" d="M104.05,89s21.11-43.65,64.49-43.65S236.17,83,236.17,83l.28,121.28H104.33Z"/>
      <path class="cls-13" d="M193.73,187.46l.82,16.83H149.86l.34-18.62Z"/>
      <path class="cls-4" d="M193.63,185.52l.1,1.94-43.53-1.79,0-1.95Z"/>
      <path class="cls-13" d="M193.22,177l.41,8.52-43.39-1.8.12-6.66c7.65-.08,15.29-.06,22.94.12,4.06.08,8.12.25,12.17.36A65.55,65.55,0,0,0,193.22,177Z"/>
      <path class="cls-13" d="M192.78,168.16l.35,7.07c-1.72.19-3.45.39-5.2.41-4.44,0-8.9-.27-13.34-.38q-12.09-.28-24.19-.14l.12-6.61Z"/>
      <path class="cls-4" d="M192.69,166.21l.09,1.95-42.26.35,0-1.95Z"/>
      <path class="cls-13" d="M191.91,150.23l.31,6.33q-20.49-.27-41,.31a1,1,0,0,0-.52.16l.16-8.65Q171.43,148.5,191.91,150.23Z"/>
      <path class="cls-13" d="M191.47,141.16l.34,7.12q-20.4-1.72-40.88-1.84l.1-5.72Z"/>
      <path class="cls-4" d="M191.37,139.22l.1,1.94L151,140.72l0-1.94Z"/>
      <path class="cls-13" d="M191.15,134.78l.22,4.44-40.3-.44.09-5.15A389.51,389.51,0,0,0,191.15,134.78Z"/>
      <path class="cls-13" d="M190.88,129.29l.18,3.55a392.63,392.63,0,0,1-39.86-1.15l.05-2.82Q171.07,128.64,190.88,129.29Z"/>
      <path class="cls-13" d="M190.2,115.4l.59,11.93q-19.74-.63-39.51-.4L151.5,115Q170.87,114.79,190.2,115.4Z"/>
      <path class="cls-13" d="M189.86,108.41l.25,5q-19.28-.6-38.57-.39l.12-6.33Q170.79,106.86,189.86,108.41Z"/>
      <path class="cls-13" d="M189.43,99.49l.34,7q-19-1.54-38.08-1.68l.11-5.7Z"/>
      <path class="cls-4" d="M189.33,97.54l.1,1.95-37.63-.41,0-1.94Z"/>
      <path class="cls-13" d="M189.11,93.17l.22,4.37-37.5-.4.1-5.1Q170.5,93.48,189.11,93.17Z"/>
      <path class="cls-13" d="M188.84,87.57l.18,3.65q-18.54.33-37.06-1.13L152,87.2Q170.44,87,188.84,87.57Z"/>
      <path class="cls-13" d="M187.86,67.49l.88,18.13q-18.33-.56-36.68-.36l.31-16.75c4.39,4.52,11.15,6.78,17.27,7.27A20.71,20.71,0,0,0,187.86,67.49Z"/>
      <path class="cls-13" d="M186.89,47.68l.84,17.26a.91.91,0,0,0-.74.43,18.84,18.84,0,0,1-17.35,8.47c-6.23-.51-13.39-3.06-17.22-8.25l.34-18.22a61.93,61.93,0,0,1,15.77-2A72.88,72.88,0,0,1,186.89,47.68Z"/>
      <path class="cls-4" d="M187.93,175.64c1.75,0,3.48-.22,5.2-.41l.09,1.77a65.55,65.55,0,0,1-7.75.54c-4.05-.11-8.11-.28-12.17-.36-7.65-.18-15.29-.2-22.94-.12l0-1.94q12.09-.13,24.19.14C179,175.37,183.49,175.67,187.93,175.64Z"/>
      <path class="cls-4" d="M151.2,131.69a392.63,392.63,0,0,0,39.86,1.15l.09,1.94a389.51,389.51,0,0,1-40-1.15Z"/>
      <path class="cls-4" d="M152,90.09q18.51,1.45,37.06,1.13l.09,2q-18.6.33-37.18-1.13Z"/>
      <path class="cls-4" d="M151.69,104.78q19.06.15,38.08,1.68l.09,2q-19.06-1.55-38.2-1.68Z"/>
      <path class="cls-4" d="M150.93,146.44q20.46.12,40.88,1.84l.1,1.95q-20.47-1.72-41-1.85Z"/>
      <path class="cls-4" d="M187.86,67.49a20.71,20.71,0,0,1-18.22,8.29c-6.12-.49-12.88-2.75-17.27-7.27l0-2.92c3.83,5.19,11,7.74,17.22,8.25A18.84,18.84,0,0,0,187,65.37a.91.91,0,0,1,.74-.43"/>
      <path class="cls-4" d="M151.25,156.87q20.49-.57,41-.31l.09,1.94q-20.53-.27-41.06.31a.85.85,0,0,1-.55-.15l0-1.63A1,1,0,0,1,151.25,156.87Z"/>
      <path class="cls-4" d="M151.28,126.93q19.75-.24,39.51.4l.09,2q-19.8-.66-39.63-.42Z"/>
      <path class="cls-4" d="M151.54,113.06q19.29-.21,38.57.39l.09,2q-19.33-.62-38.7-.4Z"/>
      <path class="cls-4" d="M152.06,85.26q18.34-.2,36.68.36l.1,1.95Q170.44,87,152,87.2Z"/>
      <path class="cls-13" d="M151.25,158.81q20.53-.57,41.06-.31l.38,7.71-42.14.35.15-7.9A.85.85,0,0,0,151.25,158.81Z"/>
      <path class="cls-4" d="M150.73,157l0,1.63A1,1,0,0,1,150.73,157Z"/>
      <path class="cls-14" d="M184.39,107.36c-2.47,1-.1,5.3-.14,8-.38-3.9-10.17-19.54-14.46-12.2-2,3.42.53,11.92,1.61,15.43,1.79,5.82,3.7,11.6,5.69,17.35,1.51-.76,3-1.8,4.27-2.41q7.83-3.91,15.55-8C191.59,114.54,187.15,106.26,184.39,107.36Z"/>
      <path class="cls-15" d="M172,101.27v0a33,33,0,0,1-1.35,9.26c-.23.8-.5,1.6-.74,2.4.5,2.22,1.12,4.26,1.53,5.59q.73,2.35,1.48,4.71c.53-1.15,1-2.39,1.44-3.49.76-1.77,1.49-3.57,2.15-5.38a48.39,48.39,0,0,0,2.6-8.69C176.77,102.86,174.11,100.72,172,101.27Z"/>
      <path class="cls-15" d="M196.4,124.43c-3,.63-7.36,1.73-8,1.85l-9.67,2c-1,.21-2.55.31-4,.59.77,2.33,1.55,4.66,2.36,7,1.51-.76,3-1.8,4.27-2.41q7.83-3.91,15.55-8Z"/>
      <path class="cls-16" d="M235.34,81.32c-4.55-6-12.48-10.82-19.3-7.72-3.86,1.76-6.35,5.74-7.31,9.87s-.6,8.45-.14,12.66c2.53,22.65,8.14,45,9.11,67.72-7.3-9.24-14.6-25.55-20.72-38.29q-7.74,4.06-15.59,7.94c-1.22.6-2.76,1.64-4.29,2.39q6.45,19,14.12,37.55a143.16,143.16,0,0,0,6.51,13.64c3,5.61,6.38,11,9.92,16.34,3.25,4.85,6.65,9.59,10.12,14.28,3.07,4.17,5.81,8.39,11,10.08a14.06,14.06,0,0,0,8.1-.06c10.51-3,13.29-13.29,14.18-23,2.6-28.23-.09-56.66-3.59-84.79C245.79,106.39,243.64,92.18,235.34,81.32Z"/>
      <path class="cls-17" d="M233.93,211.16a17.82,17.82,0,0,0-13.42,10.14c2.24,2.82,4.7,5.29,8.42,6.47a14,14,0,0,0,8.1-.1c6.4-1.88,9.9-6.43,11.86-11.89A17.77,17.77,0,0,0,233.93,211.16Z"/>
      <path class="cls-17" d="M232.73,191.48c1,2.31,4.52.71,3.54-1.6A192.53,192.53,0,0,0,217.71,156a2.06,2.06,0,0,0-.46-.47c.23,2.54.42,5.08.55,7.63A187.14,187.14,0,0,1,232.73,191.48Z"/>
      <path class="cls-15" d="M180.25,113.19q-3.09.87-6.07,2c-1.55.61-.48,3,1.07,2.36,1.77-.7,3.57-1.32,5.4-1.84C182.24,115.3,181.85,112.73,180.25,113.19Z"/>
      <path class="cls-14" d="M159.72,107.36c2.47,1,.1,5.3.14,8,.38-3.9,10.17-19.54,14.46-12.2,2,3.42-.53,11.92-1.61,15.43-1.79,5.82-3.7,11.6-5.69,17.35-1.51-.76-3.05-1.8-4.27-2.41q-7.83-3.91-15.55-8C152.52,114.54,157,106.26,159.72,107.36Z"/>
      <path class="cls-15" d="M147.71,124.43c3,.63,7.36,1.73,8,1.85l9.67,2c1,.21,2.55.31,4,.59-.77,2.33-1.55,4.66-2.36,7-1.51-.76-3.05-1.8-4.27-2.41q-7.83-3.91-15.55-8Z"/>
      <path class="cls-16" d="M108.77,81.32c4.55-6,12.48-10.82,19.3-7.72,3.86,1.76,6.35,5.74,7.31,9.87s.6,8.45.14,12.66c-2.53,22.65-8.13,45-9.11,67.72,7.3-9.24,14.6-25.55,20.72-38.29q7.74,4.06,15.59,7.94c1.22.6,2.76,1.64,4.29,2.39q-6.45,19-14.12,37.55a143.16,143.16,0,0,1-6.51,13.64c-3,5.61-6.38,11-9.92,16.34-3.25,4.85-6.65,9.59-10.12,14.28-3.07,4.17-5.81,8.39-11,10.08a14.06,14.06,0,0,1-8.1-.06c-10.51-3-13.29-13.29-14.18-23-2.59-28.23.09-56.66,3.6-84.79C98.32,106.39,100.47,92.18,108.77,81.32Z"/>
      <path class="cls-17" d="M110.18,211.16A17.82,17.82,0,0,1,123.6,221.3c-2.23,2.82-4.7,5.29-8.42,6.47a14,14,0,0,1-8.1-.1c-6.4-1.88-9.9-6.43-11.86-11.89A17.77,17.77,0,0,1,110.18,211.16Z"/>
      <path class="cls-17" d="M111.38,191.48c-1,2.31-4.52.71-3.54-1.6A192.53,192.53,0,0,1,126.4,156a2.06,2.06,0,0,1,.46-.47c-.23,2.54-.42,5.08-.55,7.63A187.14,187.14,0,0,0,111.38,191.48Z"/>
      <path class="cls-15" d="M163.86,113.19q3.09.87,6.07,2c1.55.61.48,3-1.07,2.36-1.77-.7-3.57-1.32-5.4-1.84C161.87,115.3,162.26,112.73,163.86,113.19Z"/>
      <path class="cls-16" d="M153.36,63.41a19.58,19.58,0,0,1-6.22-13.12c-.17-2.49-4.06-2.51-3.89,0a23.68,23.68,0,0,0,7.36,15.87C152.42,67.88,155.17,65.14,153.36,63.41Z"/>
      <path class="cls-16" d="M184.51,63.41a19.67,19.67,0,0,0,6.22-13.12c.16-2.49,4.05-2.51,3.89,0a23.73,23.73,0,0,1-7.36,15.87C185.45,67.88,182.69,65.14,184.51,63.41Z"/>
      <path class="cls-14" d="M192.3,49.29a73.26,73.26,0,0,0-23.76-3.94A61.86,61.86,0,0,0,146,49.58a23.4,23.4,0,0,0,46.35-.29Z"/>
      <path class="cls-15" d="M151.42,47.74c5,7.75,15.31,13.08,27.28,13.08a38.91,38.91,0,0,0,9.55-1.18,23.28,23.28,0,0,0,4.05-10.35,73.26,73.26,0,0,0-23.76-3.94A61.74,61.74,0,0,0,151.42,47.74Z"/>
      <ellipse class="cls-14" cx="169.31" cy="30.28" rx="20.99" ry="23"/>
      <path class="cls-18" d="M186.48,43.51a24.32,24.32,0,0,0,1.91-3.64,7.06,7.06,0,1,0-9.11,10.66A21.59,21.59,0,0,0,186.48,43.51Z"/>
      <path class="cls-18" d="M152,43.51a24.32,24.32,0,0,1-1.91-3.64,7.06,7.06,0,1,1,9.11,10.66A21.59,21.59,0,0,1,152,43.51Z"/>
      <ellipse class="cls-19" cx="179.6" cy="34.22" rx="2.27" ry="1.8" transform="translate(112.61 204.34) rotate(-79.3)"/>
      <ellipse class="cls-19" cx="158.88" cy="34.22" rx="1.8" ry="2.27" transform="translate(-3.59 30.11) rotate(-10.7)"/>
      <path class="cls-18" d="M166.6,39.6c.12.86.94,1.1,1.7,1.13a5.91,5.91,0,0,0,2.33-.28,2.23,2.23,0,0,0,1.57-3L170.85,33c-.34-1.15-.52-3-1.42-3.89a.57.57,0,0,0-.36-.18c-.26,0-.39.31-.46.56a59.36,59.36,0,0,0-1.76,7.22A11.5,11.5,0,0,0,166.6,39.6Z"/>
      <path class="cls-2" d="M181.7,10.93c-9.73-7.5-23.17-4.93-30,5.74a25.25,25.25,0,0,0-3.89,14.71,2.48,2.48,0,0,0,1.08.1c2.22-.32,3.34-3.28,5.57-3.57,1.61-.2,3,1.07,4.45,1.74a7.6,7.6,0,0,0,7.26-.92,11.94,11.94,0,0,1,2.09-1.37c1.17-.51,1.85.39,2.91,1.09S172.69,30,174,29.82c1.59-.18,2.59-1.76,4-2.57a4.5,4.5,0,0,1,4.33-.1c1.16.61,2,1.71,3.14,2.37a5.52,5.52,0,0,0,4.87.23l.58-.29A24.29,24.29,0,0,0,181.7,10.93Z"/>
      <circle class="cls-1" cx="58.4" cy="113" r="9.07"/>
      <path class="cls-1" d="M267.61,55A9.54,9.54,0,0,0,266,59.7,4.79,4.79,0,0,0,268.1,64a5.82,5.82,0,0,0,2.27.69,12.89,12.89,0,0,0,13.76-10C286.7,41.09,271.35,48.91,267.61,55Z"/>
      <path class="cls-1" d="M25.37,360.36c-2.82,2.95-4.78,6.91-4.56,11a4,4,0,0,0,.8,2.46,4.15,4.15,0,0,0,1.89,1.05,15.26,15.26,0,0,0,19.87-15.49,5.26,5.26,0,0,0-.7-2.59C38,349.63,29.44,356.08,25.37,360.36Z"/>
    </g>
  </g>
</svg>
